<?xml version="1.0" encoding="UTF-8"?>
<svg id="Layer_2" xmlns="http://www.w3.org/2000/svg" version="1.1" viewBox="0 0 482.6 482.3">
  <!-- Generator: Adobe Illustrator 29.6.1, SVG Export Plug-In . SVG Version: 2.1.1 Build 9)  -->
  <defs>
    <style>
      .st0 {
        fill: #602cff;
      }
    </style>
  </defs>
  <g id="Layer_1-23">
    <g>
      <path class="st0" d="M445.2,279c-12.6,29.5-52.4,20-75.8,21.6h-59.8c10.1-3.8,20-9,29.5-15.5,2.9-2,5.8-4,8.5-6.3h97.6v.2Z"/>
      <path class="st0" d="M188.8,262.3c-36,20.7-98.8,25.6-101.9-15.3h91.1c2-29.5-9.7-60.1-39.8-68.8-92.9-22.9-105.7,118.6-11,122.6,28.6-.2,51.5-6.5,72.9-19.6-4.5-5.6-8.3-11.9-11.2-18.9ZM152.1,225.6h-65.2c7.2-37.6,58.5-38.5,65.2,0Z"/>
      <path class="st0" d="M414.2,175.9h0c-15.5,0-92.7-.4-116.8-.4h-5.2c8.5,3.6,17.1,13.7,20.7,21.4h67.3c-17.3,35.1-66.1,74.7-106.9,82.1-4.5.9-8.8,1.1-13,1.1s-2.5,0-3.8-.2c-18-1.1-32.8-10.8-40.3-33.3h91.1c4.7-47.2-26.8-71.1-58.3-71.1s-38.5,8.8-49.3,26.5c-6.7,11-13.3,35.8-4.7,55.8,2.9,7,6.5,13.5,11.2,18.9,11.5,13.7,28.6,22.3,50.2,23.4,1.6,0,2.9.2,4.5.2h10.3c22.9-.7,44.1-8.5,63.4-21.6,32.6-22,59.8-59.4,80.3-103h-.9v.2ZM249.5,197.1c14.4,0,28.8,9.4,32.2,28.6h-65.2c3.6-18.9,18.4-28.6,33.1-28.6Z"/>
    </g>
  </g>
</svg>